<mxfile host="app.diagrams.net" modified="2022-11-01T03:40:07.157Z" agent="5.0 (Windows NT 10.0; Win64; x64) AppleWebKit/537.36 (KHTML, like Gecko) Chrome/107.0.0.0 Safari/537.36" etag="daplk8VWnrQ8h671t4_A" version="20.5.1" type="github">
  <diagram id="C5RBs43oDa-KdzZeNtuy" name="Page-1">
    <mxGraphModel dx="760" dy="404" grid="1" gridSize="10" guides="1" tooltips="1" connect="1" arrows="1" fold="1" page="1" pageScale="1" pageWidth="827" pageHeight="1169" math="0" shadow="0">
      <root>
        <mxCell id="WIyWlLk6GJQsqaUBKTNV-0" />
        <mxCell id="WIyWlLk6GJQsqaUBKTNV-1" parent="WIyWlLk6GJQsqaUBKTNV-0" />
        <mxCell id="xMIENGZJO90td65lysT_-6" value="" style="edgeStyle=orthogonalEdgeStyle;rounded=0;orthogonalLoop=1;jettySize=auto;html=1;" edge="1" parent="WIyWlLk6GJQsqaUBKTNV-1" source="xMIENGZJO90td65lysT_-0" target="xMIENGZJO90td65lysT_-1">
          <mxGeometry relative="1" as="geometry" />
        </mxCell>
        <mxCell id="xMIENGZJO90td65lysT_-0" value="START" style="strokeWidth=2;html=1;shape=mxgraph.flowchart.start_2;whiteSpace=wrap;" vertex="1" parent="WIyWlLk6GJQsqaUBKTNV-1">
          <mxGeometry x="363" y="120" width="100" height="100" as="geometry" />
        </mxCell>
        <mxCell id="xMIENGZJO90td65lysT_-7" value="" style="edgeStyle=orthogonalEdgeStyle;rounded=0;orthogonalLoop=1;jettySize=auto;html=1;" edge="1" parent="WIyWlLk6GJQsqaUBKTNV-1" source="xMIENGZJO90td65lysT_-1" target="xMIENGZJO90td65lysT_-2">
          <mxGeometry relative="1" as="geometry" />
        </mxCell>
        <mxCell id="xMIENGZJO90td65lysT_-1" value="&lt;div&gt;LET salary = 0;&lt;/div&gt;&lt;div&gt;LET hoursWorked = 0;&lt;/div&gt;&lt;div&gt;LET ratePerHour = 0;&lt;/div&gt;" style="verticalLabelPosition=middle;verticalAlign=middle;html=1;shape=hexagon;perimeter=hexagonPerimeter2;arcSize=6;size=0.27;labelPosition=center;align=center;" vertex="1" parent="WIyWlLk6GJQsqaUBKTNV-1">
          <mxGeometry x="329.5" y="270" width="167" height="120" as="geometry" />
        </mxCell>
        <mxCell id="xMIENGZJO90td65lysT_-8" value="" style="edgeStyle=orthogonalEdgeStyle;rounded=0;orthogonalLoop=1;jettySize=auto;html=1;" edge="1" parent="WIyWlLk6GJQsqaUBKTNV-1" source="xMIENGZJO90td65lysT_-2" target="xMIENGZJO90td65lysT_-3">
          <mxGeometry relative="1" as="geometry" />
        </mxCell>
        <mxCell id="xMIENGZJO90td65lysT_-2" value="&lt;div&gt;INPUT ratePerHour, hoursWorked&lt;/div&gt;" style="shape=parallelogram;html=1;strokeWidth=2;perimeter=parallelogramPerimeter;rounded=1;arcSize=12;size=0.23;whiteSpace=wrap;" vertex="1" parent="WIyWlLk6GJQsqaUBKTNV-1">
          <mxGeometry x="280" y="430" width="267" height="110" as="geometry" />
        </mxCell>
        <mxCell id="xMIENGZJO90td65lysT_-9" value="" style="edgeStyle=orthogonalEdgeStyle;rounded=0;orthogonalLoop=1;jettySize=auto;html=1;" edge="1" parent="WIyWlLk6GJQsqaUBKTNV-1" source="xMIENGZJO90td65lysT_-3" target="xMIENGZJO90td65lysT_-4">
          <mxGeometry relative="1" as="geometry" />
        </mxCell>
        <mxCell id="xMIENGZJO90td65lysT_-3" value="hoursWorked * ratePerHour = salary" style="rounded=1;whiteSpace=wrap;html=1;absoluteArcSize=1;arcSize=14;strokeWidth=2;" vertex="1" parent="WIyWlLk6GJQsqaUBKTNV-1">
          <mxGeometry x="305" y="600" width="217" height="95" as="geometry" />
        </mxCell>
        <mxCell id="xMIENGZJO90td65lysT_-10" value="" style="edgeStyle=orthogonalEdgeStyle;rounded=0;orthogonalLoop=1;jettySize=auto;html=1;" edge="1" parent="WIyWlLk6GJQsqaUBKTNV-1" source="xMIENGZJO90td65lysT_-4" target="xMIENGZJO90td65lysT_-5">
          <mxGeometry relative="1" as="geometry" />
        </mxCell>
        <mxCell id="xMIENGZJO90td65lysT_-4" value="PRINT salary" style="shape=parallelogram;html=1;strokeWidth=2;perimeter=parallelogramPerimeter;whiteSpace=wrap;rounded=1;arcSize=12;size=0.23;" vertex="1" parent="WIyWlLk6GJQsqaUBKTNV-1">
          <mxGeometry x="313" y="750" width="200" height="110" as="geometry" />
        </mxCell>
        <mxCell id="xMIENGZJO90td65lysT_-5" value="END" style="strokeWidth=2;html=1;shape=mxgraph.flowchart.start_2;whiteSpace=wrap;" vertex="1" parent="WIyWlLk6GJQsqaUBKTNV-1">
          <mxGeometry x="363" y="920" width="100" height="100" as="geometry" />
        </mxCell>
        <mxCell id="xMIENGZJO90td65lysT_-11" value="&lt;h1&gt;Sequential&lt;/h1&gt;&lt;div&gt;&lt;div&gt;LET ratePerHour = 0; hoursWorked = 0; salary = 0;&lt;/div&gt;&lt;div&gt;INPUT ratePerHour&amp;nbsp;, hoursWorked&lt;/div&gt;&lt;span style=&quot;color: rgb(0, 0, 0); --darkreader-inline-color:#e8e6e3;&quot; data-darkreader-inline-color=&quot;&quot;&gt;salary = ratePerHour *&amp;nbsp;&lt;/span&gt;hoursWorked&lt;br&gt;&lt;div&gt;OUTPUT salary&lt;/div&gt;&lt;/div&gt;" style="text;html=1;strokeColor=none;fillColor=none;spacing=5;spacingTop=-20;whiteSpace=wrap;overflow=hidden;rounded=0;" vertex="1" parent="WIyWlLk6GJQsqaUBKTNV-1">
          <mxGeometry x="20" y="80" width="240" height="120" as="geometry" />
        </mxCell>
      </root>
    </mxGraphModel>
  </diagram>
</mxfile>
